<?xml version="1.0" standalone="no"?><!-- Generator: Gravit.io --><svg xmlns="http://www.w3.org/2000/svg" xmlns:xlink="http://www.w3.org/1999/xlink" style="isolation:isolate" viewBox="0 0 200 200" width="200" height="200"><defs><clipPath id="_clipPath_K1p2O9X1TrMEc8bPzv0eWr2N2LcAXA4X"><rect width="200" height="200"/></clipPath></defs><g clip-path="url(#_clipPath_K1p2O9X1TrMEc8bPzv0eWr2N2LcAXA4X)"><g id="Group"><rect x="30.4" y="113" width="8.7" height="87" transform="matrix(1,0,0,1,0,0)" fill="rgb(93,165,213)"/><rect x="169.6" y="113" width="8.7" height="87" transform="matrix(1,0,0,1,0,0)" fill="rgb(93,165,213)"/><path d="M 21.7 122 L 187 122 C 189.401 122 191.35 123.949 191.35 126.35 L 191.35 126.35 C 191.35 128.751 189.401 130.7 187 130.7 L 21.7 130.7 C 19.299 130.7 17.35 128.751 17.35 126.35 L 17.35 126.35 C 17.35 123.949 19.299 122 21.7 122 Z" style="stroke:none;fill:#295D80;stroke-miterlimit:10;"/><path d=" M 169.6 156.5 L 169.6 91.25 C 169.6 55.238 140.362 26 104.35 26 L 104.35 26 C 68.338 26 39.1 55.238 39.1 91.25 L 39.1 156.5 L 169.6 156.5 Z " fill="rgb(76,149,198)"/><rect x="34.75" y="147.8" width="139.2" height="52.2" transform="matrix(1,0,0,1,0,0)" fill="rgb(41,93,128)"/></g><g id="Group"><path d=" M 41.85 118 C 41.85 108.066 49.916 100 59.85 100 C 69.784 100 77.85 108.066 77.85 118 C 77.85 127.934 69.784 136 59.85 136 C 49.916 136 41.85 127.934 41.85 118 Z " fill="rgb(56,114,154)"/><path d=" M 45.123 118 C 45.123 109.872 51.722 103.273 59.85 103.273 C 67.978 103.273 74.577 109.872 74.577 118 C 74.577 126.128 67.978 132.727 59.85 132.727 C 51.722 132.727 45.123 126.128 45.123 118 Z " fill="rgb(255,255,255)"/><path d=" M 51.668 118 C 51.668 113.484 55.334 109.818 59.85 109.818 C 64.366 109.818 68.032 113.484 68.032 118 C 68.032 122.516 64.366 126.182 59.85 126.182 C 55.334 126.182 51.668 122.516 51.668 118 Z " fill="rgb(218,213,229)"/><path d=" M 54.941 118 C 54.941 115.291 57.141 113.091 59.85 113.091 C 62.559 113.091 64.759 115.291 64.759 118 C 64.759 120.709 62.559 122.909 59.85 122.909 C 57.141 122.909 54.941 120.709 54.941 118 Z " fill="rgb(82,93,99)"/><g opacity="0.57"><path d=" M 61.486 114.727 C 61.486 112.018 63.686 109.818 66.395 109.818 C 69.105 109.818 71.305 112.018 71.305 114.727 C 71.305 117.437 69.105 119.636 66.395 119.636 C 63.686 119.636 61.486 117.437 61.486 114.727 Z " fill="rgb(255,255,255)"/></g></g><g id="Group"><path d=" M 130.85 118 C 130.85 108.066 138.916 100 148.85 100 C 158.784 100 166.85 108.066 166.85 118 C 166.85 127.934 158.784 136 148.85 136 C 138.916 136 130.85 127.934 130.85 118 Z " fill="rgb(56,114,154)"/><path d=" M 134.123 118 C 134.123 109.872 140.722 103.273 148.85 103.273 C 156.978 103.273 163.577 109.872 163.577 118 C 163.577 126.128 156.978 132.727 148.85 132.727 C 140.722 132.727 134.123 126.128 134.123 118 Z " fill="rgb(255,255,255)"/><path d=" M 140.668 118 C 140.668 113.484 144.334 109.818 148.85 109.818 C 153.366 109.818 157.032 113.484 157.032 118 C 157.032 122.516 153.366 126.182 148.85 126.182 C 144.334 126.182 140.668 122.516 140.668 118 Z " fill="rgb(218,213,229)"/><path d=" M 143.941 118 C 143.941 115.291 146.141 113.091 148.85 113.091 C 151.559 113.091 153.759 115.291 153.759 118 C 153.759 120.709 151.559 122.909 148.85 122.909 C 146.141 122.909 143.941 120.709 143.941 118 Z " fill="rgb(82,93,99)"/><g opacity="0.57"><path d=" M 150.486 114.727 C 150.486 112.018 152.686 109.818 155.395 109.818 C 158.105 109.818 160.305 112.018 160.305 114.727 C 160.305 117.437 158.105 119.636 155.395 119.636 C 152.686 119.636 150.486 117.437 150.486 114.727 Z " fill="rgb(255,255,255)"/></g></g></g></svg>